<svg fill="none" height="50" viewBox="0 0 51 50" width="51" xmlns="http://www.w3.org/2000/svg"><path d="m22.396 31.646c1.736 0 3.212-.608 4.427-1.823s1.823-2.691 1.823-4.427-.608-3.212-1.823-4.427c-1.215-1.216-2.691-1.823-4.427-1.823s-3.212.607-4.427 1.823c-1.216 1.215-1.823 2.69-1.823 4.427 0 1.736.607 3.212 1.823 4.427 1.215 1.215 2.69 1.823 4.427 1.823zm0 3.125c-2.602 0-4.814-.912-6.639-2.737-1.824-1.824-2.736-4.037-2.736-6.638 0-2.602.912-4.814 2.736-6.639 1.825-1.824 4.037-2.736 6.639-2.736 2.601 0 4.814.912 6.638 2.736 1.825 1.825 2.737 4.037 2.737 6.639 0 2.601-.912 4.814-2.737 6.638-1.824 1.825-4.037 2.737-6.638 2.737zm-14.584-7.813h-7.812v-3.125h7.813v3.125zm36.98 0h-7.813v-3.125h7.813zm-23.959-16.145v-7.813h3.125v7.813zm0 36.979v-7.813h3.125v7.813zm-9.743-31.61-4.88-4.712 2.208-2.312 4.7 4.827-2.028 2.196zm25.284 25.452-4.731-4.86 2.06-2.164 4.879 4.712zm-4.764-27.544 4.712-4.88 2.312 2.208-4.828 4.7zm-25.452 25.284 4.86-4.731 2.123 2.06-4.692 4.899z" fill="#222f30"/></svg>