<svg fill="none" height="50" viewBox="0 0 50 50" width="50" xmlns="http://www.w3.org/2000/svg"><path d="m6.167 44.583v-22.195l-4.167-6.25v-11.138h22.917v11.138l-4.167 6.25v22.195zm7.294-13.02a2.516 2.516 0 0 1 -1.845-.76 2.504 2.504 0 0 1 -.762-1.842c0-.723.253-1.338.759-1.845a2.505 2.505 0 0 1 1.843-.762c.723 0 1.338.253 1.845.759.508.506.761 1.12.761 1.843s-.253 1.338-.758 1.845a2.504 2.504 0 0 1 -1.843.762zm-8.336-20.834h16.667v-2.604h-16.667zm16.667 3.125h-16.667v1.354l4.167 6.25v20h8.333v-20l4.167-6.25z" fill="#fff"/></svg>