<svg fill="none" height="50" viewBox="0 0 50 50" width="50" xmlns="http://www.w3.org/2000/svg"><path d="m0 41.458v-36.458h3.646c1.012 0 1.873.355 2.582 1.064.71.71 1.064 1.57 1.064 2.582v4.563a11.02 11.02 0 0 1 4.046-4.084c1.72-1.014 3.62-1.52 5.701-1.52h9.804c1.039 0 1.926.367 2.662 1.103a3.628 3.628 0 0 1 1.104 2.662v13.274l1.574 1.606c.719.719 1.078 1.608 1.078 2.668s-.36 1.95-1.078 2.669l-10.997 10.965c-.718.718-1.608 1.078-2.668 1.078s-1.95-.36-2.668-1.078l-6.844-6.822c-.339-.34-.649-.688-.929-1.047-.28-.36-.542-.75-.785-1.172v4.303c0 1.012-.355 1.873-1.064 2.582s-1.57 1.063-2.582 1.063h-3.646zm17.04-30.728c-2.15 0-4.01.75-5.576 2.252-1.566 1.501-2.435 3.323-2.606 5.465 0 .173.01.34.03.5s.057.321.11.482c1.031-1.045 2.256-1.887 3.674-2.529a10.776 10.776 0 0 1 4.491-.962c1.534 0 3.008.307 4.424.92a12.006 12.006 0 0 1 3.754 2.55l2.143 2.112v-10.15c0-.186-.06-.34-.18-.46a.623.623 0 0 0 -.461-.18h-9.804zm-8.307 16.822c0 1.111.217 2.181.65 3.21a8.538 8.538 0 0 0 1.85 2.74l6.823 6.855c.134.12.29.18.47.18s.331-.06.452-.18l11.009-10.978c.133-.134.2-.29.2-.47s-.067-.331-.2-.451l-6.863-6.895a8.522 8.522 0 0 0 -2.746-1.85 8.215 8.215 0 0 0 -3.216-.65c-2.36 0-4.356.841-5.985 2.526-1.63 1.684-2.444 3.671-2.444 5.963zm30.529 9.74h-5.61v-3.125h5.61zm-5.313 9.162-3.934-3.934 2.176-2.175 3.934 3.934-2.175 2.175zm-10.112 3.138v-5.61h3.125v5.61z" fill="#222f30"/></svg>