<svg fill="none" height="340" viewBox="0 0 475 340" width="475" xmlns="http://www.w3.org/2000/svg"><rect fill="#445e5f" height="340" rx="12" width="475"/><g fill="#fff"><rect height="20.8623" rx="4" width="29.8033" x="136" y="194.203"/><rect height="20.8623" rx="4" width="29.8033" x="136" y="159.102"/><rect height="20.8623" rx="4" width="29.8033" x="136" y="124"/><rect height="20.8623" rx="4" width="29.8033" x="179.049" y="194.203"/><rect height="20.8623" rx="4" width="29.8033" x="179.049" y="159.102"/><rect height="20.8623" rx="4" width="29.8033" x="179.049" y="124"/><rect height="20.8623" rx="4" width="29.8033" x="222.098" y="194.203"/><rect height="20.8623" rx="4" width="29.8033" x="222.098" y="159.102"/><rect height="20.8623" rx="4" width="29.8033" x="222.098" y="124"/><rect height="21.1934" rx="4" width="72.1902" x="265.81" y="194.203"/><rect height="20.8623" rx="4" width="29.8033" x="265.81" y="159.102"/><rect fill-opacity=".3" height="20.8623" rx="4" width="29.8033" x="265.81" y="124"/><rect fill-opacity=".3" height="20.8623" rx="4" width="29.8033" x="308.197" y="159.102"/><rect fill-opacity=".3" height="20.8623" rx="4" width="29.8033" x="308.197" y="124"/></g></svg>